Coordinates
version=1
nRows=14
nColumns=63
inDegrees=yes

Units are S.I. units (second, meters, Newtons, ...)
If the header above contains a line with 'inDegrees', this indicates whether rotational values are in degrees (yes) or radians (no).

endheader
time	pelvis_tilt	pelvis_list	pelvis_rotation	pelvis_tx	pelvis_ty	pelvis_tz	hip_flexion_r	hip_adduction_r	hip_rotation_r	knee_angle_r	knee_angle_r_beta	ankle_angle_r	subtalar_angle_r	mtp_angle_r	hip_flexion_l	hip_adduction_l	hip_rotation_l	knee_angle_l	knee_angle_l_beta	ankle_angle_l	subtalar_angle_l	mtp_angle_l	L5_S1_Flex_Ext	L5_S1_Lat_Bending	L5_S1_axial_rotation	L4_L5_Flex_Ext	L4_L5_Lat_Bending	L4_L5_axial_rotation	L3_L4_Flex_Ext	L3_L4_Lat_Bending	L3_L4_axial_rotation	L2_L3_Flex_Ext	L2_L3_Lat_Bending	L2_L3_axial_rotation	L1_L2_Flex_Ext	L1_L2_Lat_Bending	L1_L2_axial_rotation	L1_T12_Flex_Ext	L1_T12_Lat_Bending	L1_T12_axial_rotation	Abs_r3	Abs_r2	Abs_r1	Abs_t1	Abs_t2	neck_flexion	neck_bending	neck_rotation	arm_flex_r	arm_add_r	arm_rot_r	elbow_flex_r	pro_sup_r	wrist_flex_r	wrist_dev_r	arm_flex_l	arm_add_l	arm_rot_l	elbow_flex_l	pro_sup_l	wrist_flex_l	wrist_dev_l
5.260870	-4.764960	-3.562537	95.561842	0.095681	0.512657	0.785902	-2.316523	0.677354	2.335325	1.815948	0.031694	30.300096	5.220756	0.000000	-0.733917	0.374815	12.398029	4.492729	0.078413	26.308902	-10.430078	0.000000	-0.025251	-0.201385	-0.182642	-0.046894	-0.267842	-0.194058	-0.041485	-0.489647	-0.194058	-0.028859	-0.489647	-0.159812	-0.023448	-0.410664	-0.148397	-0.014428	-0.311945	-0.136982	-0.180365	-2.278106	-1.015803	0.000000	0.000000	19.963703	-1.588594	9.666019	14.725756	-8.075099	136.169261	3.245452	4.230663	-5.259195	-17.868993	-6.308964	-18.950430	15.297659	63.817958	89.356106	-2.600782	11.951181
5.282609	-5.127574	-3.385295	95.535791	0.096630	0.514036	0.786430	-2.454704	0.350500	1.606401	1.955608	0.034132	30.299587	6.156775	0.000000	-0.931623	0.691991	12.110491	4.533358	0.079122	25.791712	-10.306984	0.000000	-0.043950	-0.268012	-0.340567	-0.081619	-0.356456	-0.361852	-0.072205	-0.651644	-0.361852	-0.050230	-0.651644	-0.297996	-0.040812	-0.546530	-0.276711	-0.025113	-0.415150	-0.255425	-0.313928	-3.031804	-1.894131	0.000000	0.000000	18.859428	-1.336904	9.076285	15.657675	-8.447149	130.594129	3.250733	2.875209	-2.308363	-19.561313	-7.876913	-19.123643	10.664291	67.040086	89.440476	-2.267409	11.239903
5.304348	-5.437032	-3.175498	95.659386	0.097282	0.515554	0.786984	-2.631449	0.078923	0.671112	2.080726	0.036316	30.289326	7.175209	0.000000	-1.063221	0.938448	11.531098	4.700780	0.082044	25.474936	-9.581007	0.000000	-0.064700	-0.328437	-0.538522	-0.120155	-0.436821	-0.572179	-0.106296	-0.798562	-0.572179	-0.073946	-0.798562	-0.471206	-0.060081	-0.669749	-0.437549	-0.036970	-0.508749	-0.403891	-0.462148	-3.715345	-2.995096	0.000000	0.000000	17.659881	-1.050628	8.611745	16.733706	-8.846218	125.327765	3.193808	1.689272	1.473404	-21.077957	-9.490231	-19.175398	5.809530	70.402852	89.429145	-1.953650	10.592224
5.326087	-5.695021	-2.929060	95.837651	0.097717	0.517218	0.787419	-2.856147	-0.142140	-0.388246	2.192265	0.038262	30.265795	8.280654	0.000000	-1.206898	1.112457	10.606111	4.886637	0.085288	25.333467	-8.291375	0.000000	-0.087467	-0.381954	-0.758982	-0.162434	-0.507999	-0.806419	-0.143699	-0.928683	-0.806419	-0.099966	-0.928683	-0.664109	-0.081222	-0.778881	-0.616673	-0.049978	-0.591647	-0.569237	-0.624766	-4.320742	-4.221231	0.000000	0.000000	16.408684	-0.792713	8.236614	17.937900	-9.251211	120.610757	3.071690	0.812795	5.852019	-22.339127	-11.151072	-19.077945	0.839439	73.789037	89.312919	-1.813900	9.839028
5.347826	-5.915690	-2.631644	96.005299	0.098020	0.518995	0.787500	-3.176334	-0.321907	-1.195028	2.251486	0.039296	30.171408	9.068781	0.000000	-1.480836	1.265682	9.953711	4.937794	0.086181	25.187411	-7.329048	0.000000	-0.112659	-0.429634	-0.989130	-0.209219	-0.571413	-1.050950	-0.185088	-1.044611	-1.050950	-0.128758	-1.044611	-0.865488	-0.104615	-0.876109	-0.803668	-0.064373	-0.665503	-0.741847	-0.804713	-4.860102	-5.501242	0.000000	0.000000	15.117828	-0.539646	7.987892	19.226115	-9.648463	116.499850	2.876476	0.392870	10.704744	-23.302676	-12.843209	-18.876201	-4.052564	77.109291	89.059046	-1.861722	8.862113
5.369565	-6.092978	-2.310657	96.196895	0.098180	0.520813	0.787286	-3.551269	-0.456175	-1.959128	2.277609	0.039752	30.063333	9.787154	0.000000	-1.801663	1.363717	9.190847	4.945783	0.086320	25.150643	-6.153552	0.000000	-0.137778	-0.470075	-1.231812	-0.255867	-0.625200	-1.308800	-0.226355	-1.142940	-1.308800	-0.157466	-1.142940	-1.077836	-0.127940	-0.958577	-1.000847	-0.078726	-0.728146	-0.923859	-0.984131	-5.317581	-6.850969	0.000000	0.000000	13.854045	-0.314488	7.927764	20.575139	-10.025557	113.241896	2.604340	0.308152	15.731978	-23.942663	-14.523216	-18.600658	-8.782619	80.238790	88.719904	-1.967451	7.605380
5.391304	-6.244998	-1.967438	96.379765	0.098281	0.522630	0.786744	-3.982565	-0.564148	-2.622791	2.265507	0.039541	29.947294	10.400295	0.000000	-2.173771	1.429182	8.287918	4.918524	0.085844	25.210231	-4.778843	0.000000	-0.161874	-0.505994	-1.475911	-0.300617	-0.672972	-1.568155	-0.265943	-1.230273	-1.568155	-0.185006	-1.230273	-1.291422	-0.150316	-1.031822	-1.199178	-0.092495	-0.783784	-1.106933	-1.156251	-5.723901	-8.208573	0.000000	0.000000	12.609791	-0.067429	8.025562	21.939699	-10.348293	111.039095	2.255137	0.514065	20.422314	-24.248202	-16.144415	-18.308961	-13.146750	83.069534	88.318023	-2.142827	6.059737
5.413043	-6.354023	-1.606098	96.510411	0.098385	0.524393	0.785840	-4.463863	-0.626468	-3.068126	2.213114	0.038626	29.800234	10.812055	0.000000	-2.632391	1.453333	7.553971	4.792418	0.083643	25.251639	-3.655865	0.000000	-0.183338	-0.534634	-1.703534	-0.340477	-0.711063	-1.810005	-0.301206	-1.299909	-1.810005	-0.209537	-1.299909	-1.490592	-0.170248	-1.090225	-1.384121	-0.104759	-0.828148	-1.277651	-1.309567	-6.047885	-9.474545	0.000000	0.000000	11.395344	0.220867	8.299945	23.249356	-10.625828	110.088303	1.834024	0.669487	24.504454	-24.272615	-17.660757	-18.007703	-17.028591	85.493801	87.856649	-2.287810	4.300671
5.434783	-6.436282	-1.250205	96.600028	0.098475	0.526026	0.784690	-4.963964	-0.662602	-3.314454	2.123837	0.037068	29.629028	11.029052	0.000000	-3.120172	1.455100	6.828127	4.621877	0.080667	25.338839	-2.567166	0.000000	-0.201168	-0.557825	-1.904166	-0.373589	-0.741908	-2.023177	-0.330499	-1.356297	-2.023177	-0.229915	-1.356297	-1.666146	-0.186805	-1.137517	-1.547135	-0.114947	-0.864071	-1.428125	-1.436924	-6.310232	-10.590402	0.000000	0.000000	10.258074	0.570425	8.699402	24.433405	-10.866567	110.189717	1.350148	0.761604	27.952783	-24.125801	-19.005542	-17.729798	-20.311271	87.486679	87.341869	-2.355478	2.534834
5.456522	-6.482818	-0.925146	96.638871	0.098572	0.527447	0.783277	-5.454457	-0.664280	-3.346613	1.998348	0.034878	29.433968	11.048067	0.000000	-3.610049	1.428794	6.166080	4.414881	0.077054	25.468339	-1.578840	0.000000	-0.213174	-0.574366	-2.060274	-0.395885	-0.763906	-2.189042	-0.350223	-1.396513	-2.189042	-0.243636	-1.396513	-1.802740	-0.197953	-1.171246	-1.673973	-0.121808	-0.889692	-1.545206	-1.522680	-6.497339	-11.458628	0.000000	0.000000	9.243532	0.947486	9.125615	25.398386	-11.125409	110.950958	0.816874	0.712047	31.249861	-24.001001	-20.157440	-17.475789	-23.020706	89.119605	86.767968	-2.247794	1.006958
5.478261	-6.520985	-0.643044	96.626105	0.098755	0.528644	0.781695	-5.913861	-0.657875	-3.192348	1.849282	0.032276	29.230996	10.902189	0.000000	-4.083730	1.403128	5.628670	4.181807	0.072986	25.594128	-0.789623	0.000000	-0.220024	-0.589380	-2.169604	-0.408607	-0.783875	-2.305204	-0.361477	-1.433019	-2.305204	-0.251465	-1.433019	-1.898403	-0.204314	-1.201864	-1.762803	-0.125722	-0.912950	-1.627203	-1.571609	-6.667185	-12.066686	0.000000	0.000000	8.376172	1.335058	9.447026	26.132447	-11.391306	111.503624	0.305816	0.641307	34.705128	-24.082922	-21.142981	-17.255710	-25.246084	90.547681	86.105631	-1.942276	-0.115799
5.500000	-6.675347	-0.166618	96.578708	0.099509	0.530432	0.781080	-6.498087	-0.737455	-3.026380	1.755788	0.030644	28.975825	10.740170	0.000000	-4.666854	1.463221	4.833899	4.059238	0.070847	25.676920	0.288831	0.000000	-0.249553	-0.638883	-2.465364	-0.463444	-0.849714	-2.619450	-0.409990	-1.553379	-2.619450	-0.285214	-1.553379	-2.157194	-0.231734	-1.302809	-2.003108	-0.142594	-0.989629	-1.849023	-1.782529	-7.227167	-13.711616	0.000000	0.000000	7.279065	2.357595	10.302566	29.545809	-11.355655	118.258636	-4.842667	-3.049932	42.270286	-26.788366	-22.735733	-16.522576	-28.506059	92.262867	85.268542	-1.446581	-0.904950
5.521739	-6.761261	0.185425	96.447049	0.100141	0.531697	0.780212	-6.950027	-0.772900	-2.784615	1.671684	0.029176	28.783171	10.600885	0.000000	-5.165449	1.489853	4.375614	3.893202	0.067949	25.719257	0.810765	0.000000	-0.269580	-0.674088	-2.636157	-0.500638	-0.896537	-2.800916	-0.442894	-1.638978	-2.800916	-0.308103	-1.638978	-2.306637	-0.250332	-1.374601	-2.141877	-0.154038	-1.044163	-1.977117	-1.925586	-7.625420	-14.661512	0.000000	0.000000	6.531044	3.102787	10.681375	31.490392	-11.582530	120.262033	-7.212799	-4.127592	48.111233	-28.310689	-23.924240	-15.902715	-30.916643	93.917188	84.255792	-0.876869	-1.316018
5.543478	-6.792673	0.401578	96.231199	0.100698	0.532439	0.779153	-7.252596	-0.778114	-2.464011	1.600764	0.027939	28.652305	10.475038	0.000000	-5.558170	1.495168	4.193653	3.696554	0.064517	25.724830	0.838679	0.000000	-0.280369	-0.697874	-2.686752	-0.520673	-0.928172	-2.854674	-0.460618	-1.696810	-2.854674	-0.320434	-1.696810	-2.350908	-0.260350	-1.423104	-2.182986	-0.160203	-1.081006	-2.015064	-2.002646	-7.894486	-14.942907	0.000000	0.000000	6.150477	3.543969	10.527896	32.053733	-11.970216	118.356552	-7.087045	-3.235432	52.151203	-28.317087	-24.728417	-15.428036	-32.538807	95.645904	83.144684	-0.320547	-1.425505
